<svg xmlns="http://www.w3.org/2000/svg" version="1.1" xmlns:xlink="http://www.w3.org/1999/xlink" xmlns:svgjs="http://svgjs.com/svgjs" width="512" height="512" x="0" y="0" viewBox="0 0 512 512" style="enable-background:new 0 0 512 512" xml:space="preserve" class=""><g><path xmlns="http://www.w3.org/2000/svg" d="m470 407.3a26.929 26.929 0 0 1 -26.892 26.882h-374.261a26.918 26.918 0 0 1 -26.847-26.882v-7.119h428zm22.786-49.027c0-.679.048-1.359.048-2.052v-276.438a44.013 44.013 0 0 0 -43.97-43.961h-385.725a44.012 44.012 0 0 0 -43.97 43.961v276.434c0 .693.047 1.373.047 2.052a20.969 20.969 0 0 0 -19.2 20.909v28.122a68.947 68.947 0 0 0 68.832 68.88h374.261a68.958 68.958 0 0 0 68.88-68.88v-28.122a20.97 20.97 0 0 0 -19.2-20.909zm-345.057-140.273 37.412 37.369a21.008 21.008 0 0 1 -29.722 29.7l-52.226-52.221a20.98 20.98 0 0 1 0-29.694l52.226-52.221a21.008 21.008 0 0 1 29.722 29.7zm103.46 99.036a20.983 20.983 0 0 1 -20.239 15.573 21.382 21.382 0 0 1 -5.472-.722 21.05 21.05 0 0 1 -14.861-25.716l50.2-187.207a20.979 20.979 0 1 1 40.525 10.87l-50.15 187.2zm113.039-99.036-37.365-37.37a21.008 21.008 0 0 1 29.722-29.7l52.226 52.221a20.98 20.98 0 0 1 0 29.694l-52.226 52.221a21.008 21.008 0 1 1 -29.722-29.7z" fill="#0a9e4d" fill-rule="evenodd" data-original="#0a9e4d" class=""></path></g></svg>